<?xml version="1.0" encoding="UTF-8" standalone="no"?>
<!-- Created with Inkscape (http://www.inkscape.org/) -->

<svg
   xmlns:dc="http://purl.org/dc/elements/1.1/"
   xmlns:cc="http://creativecommons.org/ns#"
   xmlns:rdf="http://www.w3.org/1999/02/22-rdf-syntax-ns#"
   xmlns:svg="http://www.w3.org/2000/svg"
   xmlns="http://www.w3.org/2000/svg"
   xmlns:sodipodi="http://sodipodi.sourceforge.net/DTD/sodipodi-0.dtd"
   xmlns:inkscape="http://www.inkscape.org/namespaces/inkscape"
   width="70mm"
   height="204mm"
   viewBox="0 0 70 204"
   version="1.1"
   id="svg4083"
   inkscape:version="0.92.4 (5da689c313, 2019-01-14)"
   sodipodi:docname="burnt.svg">
  <defs
     id="defs4077" />
  <sodipodi:namedview
     id="base"
     pagecolor="#ffffff"
     bordercolor="#666666"
     borderopacity="1.0"
     inkscape:pageopacity="0.0"
     inkscape:pageshadow="2"
     inkscape:zoom="1.4"
     inkscape:cx="205.43307"
     inkscape:cy="286.96691"
     inkscape:document-units="mm"
     inkscape:current-layer="layer1"
     showgrid="false"
     inkscape:window-width="1920"
     inkscape:window-height="1017"
     inkscape:window-x="-8"
     inkscape:window-y="-8"
     inkscape:window-maximized="1"
     units="mm" />
  <metadata
     id="metadata4080">
    <rdf:RDF>
      <cc:Work
         rdf:about="">
        <dc:format>image/svg+xml</dc:format>
        <dc:type
           rdf:resource="http://purl.org/dc/dcmitype/StillImage" />
        <dc:title></dc:title>
      </cc:Work>
    </rdf:RDF>
  </metadata>
  <g
     inkscape:label="Layer 1"
     inkscape:groupmode="layer"
     id="layer1"
     transform="translate(-69.072641,-33.820107)">
    <path
       style="fill:#e6c5a1;fill-opacity:1;fill-rule:evenodd;stroke:none;stroke-width:0.35277775"
       d="m 109.94243,237.82011 h 9.10748 v -90.27803 h -9.10748 v 90.27803"
       id="path26"
       inkscape:connector-curvature="0" />
    <path
       style="fill:#2e2b2b;fill-opacity:1;fill-rule:evenodd;stroke:none;stroke-width:0.35277775"
       d="m 83.391756,100.89411 c 0.46853,-3.235634 4.63158,-5.309584 9.297624,-4.634344 3.54983,0.51401 6.36791,2.47082 7.30773,4.801084 2.59898,0.49334 5.72851,2.14423 6.49469,7.41247 0.77722,5.36057 2.18145,7.15753 3.33763,8.63755 1.6385,2.09874 2.91733,3.73724 2.51356,9.31415 -0.43547,6.01101 1.00459,8.90213 2.31924,11.54521 1.3491,2.70922 4.71703,5.20347 4.38768,9.72344 l -9.10748,-0.30317 c 0.24391,-3.35002 1.94718,-5.34128 0.87093,-7.50342 -1.56409,-3.14331 -3.27562,-6.58289 -2.7561,-13.76523 0.28526,-3.94807 -0.54432,-5.01054 -1.6068,-6.37204 -1.47587,-1.89067 -3.27146,-4.18786 -4.21128,-10.67153 -0.33486,-2.30408 -1.60955,-3.26595 -2.85529,-3.66007 -1.55443,1.98575 -4.82451,3.0744 -8.3895,2.55764 -4.667414,-0.67524 -8.071174,-3.84611 -7.602634,-7.08174"
       id="path28"
       inkscape:connector-curvature="0" />
  </g>
</svg>
